Patient4_TMGait_0pt7_01_left_08_EMG.mot
version=1
nRows=40
nColumns=33
inDegrees=no
endheader
time	1LAddLong	2LGlutMax	3LGlutMed	4LIliopsoas	5LSemiMemb	6LBicFemLong	7LRecFem	8LVastMed	9LVastLat	10LGasMed	11LTibAnt	12lTibPost	13LPeroneusLong	14LSol	15LExtDigLong	16LFlexDigLong	17RAddLong	18RGlutMax	19RGlutMed	20RIliopsoas	21RSemiMemb	22RBicFemLong	23RRecFem	24RVastMed	25RVastLat	26RGasMed	27RTibAnt	28RTibPost	29RPeroneusLong	30RSol	31RExtDigLong	32RFlexDigLong
9.21	0.010986	-0.18463	-0.056915	0.006866	-0.029602	0.049591	0.18051	0.016632	0.031128	-0.002747	0.030365	0.007477	0.05722	-0.16357	0.080566	0.012207	-0.044403	-0.27878	-0.24765	-0.070343	0.17792	-0.30716	-0.17853	1.003	0.4184	-0.026245	0.09964	-0.030975	-0.13168	0.060577	-0.001373	-0.013428
9.211	0.013428	-0.092621	-0.079346	0	-0.018005	0.053253	0.18631	0.012512	0.059662	0.024109	0.13001	0.011749	0.044098	-0.2121	0.30533	-0.002594	-0.029297	-0.33234	0.19669	-0.00351	0.19623	-0.23911	-0.07019	0.43396	0.40207	-0.008392	-0.076599	0.002594	-0.50308	-0.26321	0.001526	-0.015259
9.212	0.005035	-0.005646	-0.074921	0.008087	-0.023346	0.058594	0.18249	0.015259	0.096741	-0.008087	0.080109	0.012665	0.080872	-0.22232	0.55023	-0.003815	-0.037689	-0.28366	0.6955	0.000916	0.16083	-0.26001	-0.071564	-0.095978	0.23758	0.058746	-0.17792	0.017548	-0.50476	-0.51331	-0.001068	-0.021057
9.213	0.006256	0.0354	-0.088348	0	-0.028381	0.025482	0.18265	0.01236	0.12848	-0.0383	0.095673	0.012665	0.044861	-0.13825	-0.09079	0.00351	-0.038147	-0.26337	0.3891	0.052185	0.061798	-0.21133	-0.081635	-0.60699	0.037842	0.1033	-0.17288	-0.10346	-0.35446	-0.45822	0.000153	-0.021362
9.214	0.005188	0.098724	-0.042725	0.010071	-0.016937	0.031586	0.18738	0.013733	0.15778	-0.034485	0.081329	0.016174	0.027008	0.014191	-0.11246	-0.010376	-0.028229	-0.35599	0.097351	0.041504	0.008545	-0.17456	0.018158	-0.65018	0.007477	0.053101	0.011597	-0.43732	-0.25665	-0.40359	-0.001068	-0.009003
9.215	0.000153	0.13687	-0.064545	0.028076	-0.02655	0.026703	0.16876	0.016174	0.17532	-0.041046	0.10941	0.014191	-0.062103	0.14191	-0.052032	0.012665	-0.017395	-0.27695	-0.021515	-0.002594	-0.054932	-0.098419	-0.1831	-0.34912	0.040588	0.015717	0.4425	0.035706	-0.14725	-0.29251	0.000458	-0.003662
9.216	-0.019226	0.15808	-0.054016	0.023804	-0.031128	0.014648	0.1416	0.015869	0.20081	-0.003357	0.041351	0.014496	-0.05127	0.16739	0.15045	0.001221	-0.004883	-0.3566	-0.32761	-0.026855	-0.082703	-0.084381	-0.33066	-0.21851	0.096893	-0.060577	0.56183	0.30975	-0.11459	-0.57159	0.00351	-0.012817
9.217	-0.01236	0.14481	-0.049591	0.014801	-0.032349	-0.002747	0.1355	0.01236	0.2301	0.010834	-0.15732	0.016937	-0.002289	0.18707	0.19409	0.006256	-0.002747	-0.27588	-0.29709	-0.027313	-0.11368	-0.081482	-0.17059	-0.15701	0.14679	-0.090179	0.38452	0.1973	-0.084839	-0.78323	-0.000305	-0.012054
9.218	0.002899	0.12207	-0.074463	0.019989	-0.018463	0.016174	0.12817	0.008545	0.24185	0.055237	-0.014801	0.005035	0.003967	0.24582	0.069275	0.006714	0.000305	-0.28564	-0.060425	0.059967	-0.066376	-0.14343	0.013428	-0.059509	0.074005	-0.13153	0.001831	0.12848	0.2005	0.16327	0.000763	-0.003967
9.219	0.00351	0.061188	-0.1738	0.020752	-0.019836	0.021057	0.13214	0.010681	0.24948	0.038605	0.17624	0.00473	0.017395	0.25421	-0.045319	0.014496	-0.030518	-0.27771	-0.15854	0.072174	-0.007324	-0.16525	0.053711	-0.007019	-0.031586	-0.048676	-0.36194	0.041962	0.17975	0.86578	0.002289	0.004272
9.22	0.00473	0.084839	-0.24582	0.001831	-0.029907	0.005188	0.11856	0.010529	0.25696	-0.010529	0.13931	0.009918	0.074463	0.30029	0.05249	0.017853	-0.026703	-0.29877	-0.7402	-0.031738	-0.025787	-0.159	0.080261	-0.015106	-0.037994	0.036774	-0.17029	0.004425	0.040283	1.1946	-0.000153	0.010529
9.221	0.001984	0.12329	-0.23285	-0.012817	-0.023193	0.013733	0.12405	0.005798	0.27588	-0.002594	-0.1944	0.008698	0.062256	0.25757	0.25879	0.018616	0.007629	-0.224	-0.30304	-0.095215	-0.050507	-0.1831	0.15533	-0.037842	-0.06424	0.025635	0.44022	-0.002594	0.10315	1.7215	0.00061	0.007477
9.222	0.008392	0.15091	-0.17181	-0.00061	-0.02655	-0.001984	0.11551	0.011597	0.27832	0.019531	-0.26657	0.008698	0.10544	0.051727	0.12894	0.02121	0.021973	-0.11719	-0.26291	-0.1004	-0.067139	-0.18417	0.19486	-0.029907	-0.053864	-0.044861	1.0419	0.008392	-0.030518	0.58212	-0.001221	-0.003662
9.223	0.001221	0.22644	0.02655	-0.015869	-0.025482	0.009613	0.13306	0.005188	0.27466	0.007782	-0.19882	0.01358	0.15472	-0.059967	0.032806	0.032043	0.02121	-0.13504	-0.56412	0.020752	-0.05661	-0.1886	0.19684	-0.087891	-0.11139	-0.076141	1.1316	-0.007172	-0.13138	-0.57846	-0.004425	-0.003967
9.224	0.003357	0.28397	0.063782	-0.009155	-0.024261	0.000916	0.11078	0.007019	0.28824	-0.005035	-0.095367	0.018311	0.17349	-0.14236	-0.22919	0.017395	0.001678	-0.13412	-0.3125	0.056	-0.10178	-0.15533	0.018311	-0.17303	-0.10223	-0.061188	0.74509	-0.015411	-0.071106	-0.94925	0.001526	-0.016937
9.225	-0.002747	0.30746	0.040894	-0.023346	-0.016174	-0.013428	0.10986	-0.003204	0.29388	-0.014801	0.040741	0.011444	0.09613	-0.31708	-0.23346	0.024414	-0.001221	-0.112	0.062103	0.10025	-0.076752	0.007172	-0.16525	-0.13138	-0.015106	0.071564	-0.15686	-0.030365	0.063171	-0.37445	0.002899	-0.003357
9.226	0.003815	0.35919	0.037994	-0.009003	-0.023956	-0.003815	0.093842	0.005188	0.29648	-0.012665	0.07019	0.01297	0.002747	-0.30579	-0.09552	-0.007324	-0.0177	-0.17197	-0.36697	0.08728	0.033569	0.12497	-0.19028	-0.016479	0.10757	0.089569	-0.66803	-0.038757	0.053711	0.55954	0.00061	-0.016479
9.227	0.009766	0.37323	0.016327	-0.014648	-0.021667	-0.018158	0.11215	-0.001068	0.28976	-0.012207	0.043488	0.010834	-0.048218	-0.29175	-0.14908	0.003052	0.005493	-0.15793	-0.44098	0.00061	-0.084076	0.014038	-0.2536	0.041199	0.28275	0.00351	-0.3923	-0.049133	-0.1973	0.25864	0	0.000916
9.228	0.005493	0.4158	-0.00351	-0.020142	-0.018616	0.014191	0.10025	0.004425	0.29358	-0.013428	0.031738	0.008392	-0.019073	-0.26535	0.23727	0.015106	0.030975	-0.16586	0.038147	-0.071411	-0.22659	-0.008545	-0.17975	-0.094604	0.22583	-0.01709	-0.47348	-0.053253	-0.28183	-0.33325	0.002289	0.006104
9.229	-0.001984	0.42038	-0.035553	-0.014648	-0.008698	0.037537	0.09491	0.006866	0.29068	-0.035858	0.054626	0.007477	0.039825	-0.16403	0.079956	0.013733	0.027313	-0.27634	-0.097961	-0.042725	-0.1239	-0.002594	0.061951	-0.093079	0.1059	-0.001526	-0.3215	-0.038757	-0.13809	-0.45853	0.002136	0.001526
9.23	0.004272	0.41122	-0.071869	0.013123	-0.011902	0.025635	0.0914	0.007172	0.289	-0.047913	-0.011902	0.002594	0.074463	0.007935	0.027161	0.013275	-0.004883	-0.36102	-0.046387	-0.062256	-0.051727	0.014801	0.23056	-0.093384	-0.00946	0.006866	-0.010986	-0.005951	-0.041504	-0.32318	-0.000763	-0.000305
9.231	-0.014801	0.39932	-0.063782	0.037842	-0.029907	0.015869	0.091705	0.006104	0.28778	-0.045776	-0.083313	0.000153	0.10971	0.088196	-0.13367	0.012512	0.008698	-0.33569	-0.27542	-0.065308	-0.084534	0.080566	-0.019684	0.064087	0.096741	-0.085754	-0.11688	-0.014954	0.33463	-0.36087	-0.001068	0.005341
9.232	0	0.42404	-0.065002	0.021057	-0.035095	-0.000458	0.094757	0.007324	0.28595	-0.042114	0.04715	0.006561	0.057068	0.1033	-0.039368	0.019226	-0.012817	-0.29358	0.057068	-0.094604	-0.068665	0.1091	-0.11002	0.19043	0.28168	0.003357	-0.75256	0.054321	0.34698	-0.44296	0.001984	-0.000763
9.233	0.001678	0.43381	-0.07431	0.015259	-0.038757	-0.013123	0.087585	0.005798	0.28686	-0.02594	0.086212	-0.00412	0.006714	0.039368	-0.049286	0.016479	-0.021667	-0.21988	0.23636	0.030975	0.006714	-0.039368	-0.023956	0.046692	0.15915	0.080719	-0.33798	-0.008392	-0.33249	-0.4425	-0.00061	-0.003815
9.234	0.000153	0.40543	-0.050964	-0.003815	-0.056152	-0.01709	0.082703	0.003204	0.27039	-0.036163	0.06012	-0.002899	0.061035	0.018311	-0.077972	0.009766	-0.028076	-0.25009	-0.44662	0.061188	-0.001221	-0.15915	0.026398	-0.027161	0.036316	0.059662	-0.092468	-0.11154	-0.10208	-0.32394	-0.00061	-0.009155
9.235	0.028687	0.44128	-0.072479	0.011597	-0.06073	-0.061951	0.060577	0.003662	0.27115	-0.031586	0.040283	0.000458	0.045013	0.019989	-0.002289	0.015106	-0.032196	-0.24628	-0.3479	0.062714	-0.007935	-0.19302	-0.39688	-0.042572	0.024719	0.034943	0.27374	-0.3479	0.15533	-0.33005	-0.002899	-0.009155
9.236	0.021515	0.47836	-0.080566	0.012512	0.002136	-0.053101	0.071564	0.003967	0.25955	-0.018463	0.024719	0.002899	0.06424	-0.018921	0.061035	0.012054	-0.032349	-0.092468	0.088043	0.073547	0.039063	-0.24353	-0.48737	0.10559	0.098419	0.010834	0.12009	0.12955	0.14694	-0.25589	0.000916	-0.010376
9.237	0.016022	0.48233	-0.052185	0.018768	0.022736	-0.034485	0.066528	0.002594	0.24704	-0.035706	0.055237	-0.004425	0.065155	-0.000305	0.092316	0.006714	-0.014191	-0.11963	0.54627	0.022888	-0.10803	-0.336	-0.13977	0.12146	-0.082092	0.045471	-0.24887	0.1973	0.17975	-0.052338	0	-0.012054
9.238	0.014343	0.46783	-0.059052	0.018463	0.004883	-0.025024	0.071106	0.002594	0.24429	-0.036316	0.028687	-0.009613	0.071869	-0.020752	0.085754	0.007629	0.023346	-0.19714	-0.18387	0.006866	-0.14694	-0.31845	0.28641	-0.014954	-0.47211	0.062103	-0.62164	0.034332	0.38528	0.08194	-0.002289	-0.000305
9.239	-0.023346	0.54947	-0.063782	0.006104	0.00473	-0.04303	0.052795	0.000763	0.2417	-0.031586	-0.018005	0.002747	0.07019	0.026398	0.092316	0.005493	0.02655	-0.11246	-0.17441	0.044403	-0.070648	-0.233	0.159	-0.15823	-0.36484	0.040131	-0.77148	0.00061	0.2536	0.098419	-0.002899	-0.008545
9.24	-0.063171	0.60455	-0.10925	0.001984	-0.013123	-0.039978	0.067902	0.002289	0.23651	-0.038147	-0.013275	-0.00351	0.10025	0.02121	0.060272	0.007629	-0.015259	-0.020599	0.11185	0.039368	0.0354	-0.21881	0.038452	-0.08316	0.070343	0.030975	-0.8635	-0.006256	0.09079	-0.10239	0.00061	-0.014343
9.241	-0.055542	0.63339	-0.079346	-0.012207	-0.041351	-0.02533	0.071716	0.007019	0.22903	-0.019531	0.02243	-0.005035	0.071411	0.079193	-0.002899	0.01236	-0.010376	0.025024	0.024719	0.004883	-0.012207	-0.19516	-0.068512	0.041046	0.24063	0.024109	-0.64194	-0.00412	0.18204	-0.32394	-0.000458	-0.01236
9.242	0.027924	0.62576	-0.068207	0.007935	-0.05722	-0.06134	0.069733	0.005493	0.23529	-0.018158	-0.002594	-0.004272	-0.010071	0.02243	-0.037994	0	-0.005646	0.022125	-0.12756	-0.075531	-0.035248	-0.17609	-0.2504	0.24735	0.001984	0.012512	0.28458	-0.009308	0.17975	-0.35523	0.000305	-0.015869
9.243	-0.009155	0.62363	-0.093384	0.001984	-0.049133	-0.095825	0.064697	0	0.23605	-0.021057	0.009918	-0.002594	0.017548	0.016937	-0.047607	0.018005	0.010681	-0.026703	-0.024261	-0.15015	-0.034943	-0.1947	-0.2832	0.35431	-0.52765	0.001221	0.63339	-0.016632	0.17029	-0.16815	0.003204	-0.015411
9.244	0.019226	0.61356	-0.13229	-0.002899	0.020142	-0.11169	0.066528	0.008698	0.23377	-0.028992	0.024109	-0.005493	0.038757	0.013733	-0.062103	0.008545	0.003662	-0.053253	-0.14755	-0.094147	-0.021362	-0.19913	-0.14572	0.31677	-0.44464	-0.015564	0.46799	-0.009613	-0.025177	-0.10696	0.001678	-0.019531
9.245	0.027313	0.6279	-0.055389	0.017548	0.031433	-0.099487	0.072327	0.003815	0.24063	-0.036926	0.020905	-0.004272	0.050812	-0.028076	-0.034943	-0.000153	0.003967	-0.053711	0.011749	-0.046234	-0.075226	-0.17334	-0.17746	0.045776	-0.22629	-0.014343	0.26321	-0.023651	-0.28549	-0.070038	0.001831	-0.016785
9.246	0.041656	0.62988	0.004578	0.003357	0.04425	-0.063629	0.072479	-0.000153	0.21881	-0.044556	0.016327	-0.007629	0.062408	-0.045319	0.012817	0.016632	0.014648	-0.10483	-0.29633	0.013123	-0.13245	-0.16052	-0.12558	-0.10407	-0.12497	-0.003052	-0.15564	-0.019531	-0.043335	-0.027161	0.001373	-0.017853
9.247	0.027924	0.68573	0.039825	0.007629	0.006714	-0.042572	0.070343	0.000153	0.20645	-0.015411	0.008698	-0.00351	0.078125	-0.061493	0.039368	0.006104	0.015564	-0.080872	-0.2301	-0.013123	-0.17349	-0.16571	-0.1149	-0.056915	-0.099792	-0.000916	-0.29602	-0.20706	-0.012817	-0.14893	0.003357	-0.014648
9.248	0.028534	0.62668	-0.003662	0.018463	-0.018768	-0.050812	0.070038	0.002441	0.20645	-0.024414	0.011749	-0.003357	0.079803	-0.082703	0.001526	-0.00351	-0.019836	-0.13779	-0.27634	-0.026245	-0.053558	-0.16388	-0.12772	0.04425	-0.05188	-0.00824	-0.093231	-0.064697	-0.27405	-0.00351	0.002136	-0.013428
9.249	0.03479	0.69092	-0.050812	-0.002899	0.011749	-0.046082	0.05188	0.005188	0.19714	-0.02243	0.009155	0.005493	0.089417	-0.19577	-0.036316	0.012512	0.003357	-0.14999	-0.1329	0.002899	-0.065002	-0.16037	-0.01709	0.051727	-0.035553	0.001984	0.093231	0.018158	-0.18021	-0.24674	0.002441	-0.020294
